<?xml version="1.0" encoding="UTF-8" standalone="no"?>
<!-- Created with Inkscape (http://www.inkscape.org/) -->

<svg
   xmlns:dc="http://purl.org/dc/elements/1.1/"
   xmlns:cc="http://creativecommons.org/ns#"
   xmlns:rdf="http://www.w3.org/1999/02/22-rdf-syntax-ns#"
   xmlns:svg="http://www.w3.org/2000/svg"
   xmlns="http://www.w3.org/2000/svg"
   xmlns:sodipodi="http://sodipodi.sourceforge.net/DTD/sodipodi-0.dtd"
   xmlns:inkscape="http://www.inkscape.org/namespaces/inkscape"
   version="1.1"
   id="svg2"
   width="50"
   height="70"
   viewBox="0 0 50 70"
   sodipodi:docname="steel_2.svg"
   inkscape:version="0.92.3 (2405546, 2018-03-11)">
  <metadata
     id="metadata8">
    <rdf:RDF>
      <cc:Work
         rdf:about="">
        <dc:format>image/svg+xml</dc:format>
        <dc:type
           rdf:resource="http://purl.org/dc/dcmitype/StillImage" />
        <dc:title></dc:title>
      </cc:Work>
    </rdf:RDF>
  </metadata>
  <defs
     id="defs6" />
  <sodipodi:namedview
     pagecolor="#ffffff"
     bordercolor="#666666"
     borderopacity="1"
     objecttolerance="10"
     gridtolerance="10"
     guidetolerance="10"
     inkscape:pageopacity="0"
     inkscape:pageshadow="2"
     inkscape:window-width="1366"
     inkscape:window-height="739"
     id="namedview4"
     showgrid="false"
     inkscape:zoom="5.5858477"
     inkscape:cx="14.749634"
     inkscape:cy="33.263696"
     inkscape:window-x="0"
     inkscape:window-y="0"
     inkscape:window-maximized="1"
     inkscape:current-layer="svg2" />
  <rect
     style="opacity:1;vector-effect:none;fill:#cacaca;fill-opacity:1;stroke:none;stroke-width:1.17527127;stroke-linecap:round;stroke-linejoin:bevel;stroke-miterlimit:4;stroke-dasharray:none;stroke-dashoffset:0;stroke-opacity:1"
     id="rect821"
     width="48.816784"
     height="26.864914"
     x="0.40609419"
     y="1.53184"
     ry="3.5168612" />
  <path
     style="fill:#000000;stroke-width:0.14597598"
     d="M 20.361331,70.314664 C 17.758143,70.027577 14.981868,69.068786 13.17064,67.831348 11.717378,66.838471 10.06611,65.042536 9.1635432,63.473188 8.930275,63.067591 8.3157938,62.442992 7.5635541,61.846855 5.9280586,60.550752 3.6503749,58.155013 2.4441696,56.462125 1.4723667,55.098216 -0.08340736,52.172959 -0.96872403,50.045001 -1.465797,48.850231 -2.159342,45.527195 -2.2974848,43.678412 c -0.066277,-0.887007 -0.1477846,-1.194946 -0.3551844,-1.341921 -0.3567711,-0.252827 -0.3556223,-1.181179 0.00235,-1.895226 0.1684985,-0.336112 0.3033906,-1.013837 0.3555331,-1.786292 0.1825576,-2.704411 1.0733278,-5.976683 2.37649181,-8.730116 L 0.8646103,28.270676 0.54063115,27.832525 0.21665061,27.394375 0.17607809,15.25405 C 0.13166195,1.9639013 0.11422069,2.2617521 0.97656648,1.583431 1.3454114,1.2932979 1.5511542,1.2907944 25.032568,1.2907944 h 23.683974 l 0.401192,0.3155767 c 0.78774,0.6196374 0.803739,0.7654295 0.803739,7.324444 v 6.0454299 l 1.894025,0.05901 c 2.090862,0.06515 2.371892,0.170955 3.032664,1.141831 l 0.328446,0.482588 -2.92e-4,12.276887 c -1.46e-4,11.399684 -0.01846,12.312655 -0.255458,12.77743 -0.473522,0.928633 -0.876965,1.099262 -2.728057,1.153786 l -1.649652,0.04858 -0.09659,0.973244 c -0.05313,0.535282 -0.19065,1.564442 -0.305609,2.287024 -0.11496,0.722581 -0.273302,1.762461 -0.351871,2.310845 -0.09218,0.643315 -0.264242,1.161221 -0.484992,1.459759 -0.188177,0.254485 -0.587609,1.021058 -0.887628,1.703495 -1.714615,3.900158 -4.398432,7.43934 -7.606099,10.03025 -0.905805,0.731644 -1.2972,1.17592 -1.812059,2.056894 -0.855541,1.463915 -3.076986,3.700799 -4.477358,4.508474 -1.972789,1.137823 -4.097776,1.786534 -6.818624,2.081574 -1.653741,0.179325 -5.66035,0.172087 -7.341045,-0.01327 z m 7.692756,-0.633767 c 1.993782,-0.262063 3.007727,-0.51706 4.460007,-1.121646 1.514217,-0.63037 3.026535,-1.676025 4.156673,-2.874031 1.959642,-2.077325 2.63312,-3.463205 3.980373,-8.190811 0.536948,-1.88419 1.096131,-3.66075 1.242632,-3.947911 0.299714,-0.58749 1.357219,-1.616769 1.989492,-1.936392 0.22997,-0.116254 1.173553,-0.458485 2.096851,-0.760513 2.024146,-0.662137 2.73326,-1.033144 3.014627,-1.577243 0.253744,-0.490688 0.310703,-1.058993 0.409031,-4.08105 l 0.07481,-2.299123 h -1.825348 c -1.755606,0 -1.830513,0.01255 -1.960462,0.328447 -0.07431,0.180645 -0.542491,1.379473 -1.040398,2.664062 -1.547722,3.993087 -2.97734,6.574251 -4.340004,7.835839 -1.375576,1.273539 -4.399541,2.700263 -7.508478,3.542542 -2.934802,0.795101 -7.356822,1.187248 -10.727341,0.951307 C 17.091418,57.865407 14.304825,57.18433 10.726916,55.440384 8.0285081,54.125125 7.238634,53.297358 5.4020371,49.860054 5.0024483,49.112201 4.5136244,48.076026 4.3157612,47.557443 4.1178966,47.038861 3.5037523,45.42789 2.9509939,43.977509 2.3982368,42.527129 1.8975829,41.262144 1.8384306,41.166434 1.5696377,40.731519 -0.20844164,40.27478 -0.77957272,40.493945 c -0.36461008,0.139915 -0.41680958,1.03917 -0.27934978,4.812512 0.14274259,3.9184 0.20516196,4.16546 1.18943122,4.70788 0.28823541,0.158844 1.27948968,0.531622 2.20278778,0.828397 1.8403936,0.591555 2.6568124,1.00568 3.3508261,1.699694 0.6895102,0.68951 0.952956,1.320024 1.8347212,4.391095 0.4451462,1.550384 0.9477442,3.24586 1.1168856,3.767724 1.3701756,4.227508 4.8099136,7.433793 9.1746786,8.551993 2.468775,0.632471 7.186876,0.829443 10.243679,0.427657 z M 14.50592,64.003765 C 11.582235,62.916932 9.8218611,60.862891 9.263554,57.886858 9.1740843,57.40994 9.1965693,57.3438 9.4482083,57.3438 c 0.2295977,0 0.3386368,0.192488 0.5487613,0.968752 0.7273334,2.686987 2.3388864,4.314255 5.2552024,5.306446 0.426615,0.145143 0.74949,0.348732 0.777077,0.489985 0.06575,0.336691 -0.4259,0.302733 -1.523329,-0.105218 z m 17.778244,0.105219 c 0.02759,-0.141253 0.350462,-0.344842 0.777077,-0.489985 2.94722,-1.002705 4.66494,-2.774711 5.340057,-5.508824 0.14142,-0.572726 0.256033,-0.766374 0.453591,-0.766374 0.161031,0 0.264355,0.106823 0.264355,0.27332 0,0.439791 -0.718002,2.521602 -1.088865,3.157115 -0.797501,1.366595 -2.492823,2.633375 -4.404393,3.291052 -1.031776,0.354984 -1.404991,0.367136 -1.341822,0.0437 z m 4.664061,-2.34941 c 0.181576,-0.231526 0.176413,-0.236689 -0.05512,-0.05512 -0.243159,0.190698 -0.320487,0.310572 -0.200342,0.310572 0.03031,0 0.145267,-0.114956 0.255457,-0.255458 z M 8.0176665,60.821545 C 7.8230249,60.246591 7.5680329,59.895946 6.9508981,59.354621 5.1739949,57.795994 2.9600444,54.823233 1.7385232,52.355753 1.1895294,51.24678 1.0429871,51.062999 0.55482154,50.871243 0.24839451,50.750873 -0.0023192,50.688773 -0.0023192,50.73324 c 0,0.202937 1.3298412,2.845879 1.8939347,3.764028 1.3805079,2.246989 3.2934634,4.494534 5.2991306,6.22598 0.5439969,0.469621 1.0101495,0.853855 1.0358945,0.853855 0.025746,0 -0.068289,-0.340001 -0.2089741,-0.755558 z M 42.922536,58.855372 c 1.827039,-1.910863 3.655003,-4.602778 4.735308,-6.973351 0.390639,-0.8572 0.46127,-1.118944 0.283544,-1.050744 -0.130174,0.04995 -0.384281,0.127869 -0.564677,0.173147 -0.230166,0.05777 -0.47647,0.392576 -0.825801,1.122537 -1.127041,2.355065 -2.802006,4.684623 -4.80051,6.676598 -0.850218,0.847441 -1.168317,1.284059 -1.407806,1.932329 l -0.309397,0.837506 0.96629,-0.858684 c 0.531459,-0.472273 1.39683,-1.308976 1.923049,-1.859338 z M 5.690744,59.770276 c 0,-0.03031 -0.1149561,-0.145267 -0.255458,-0.255457 -0.2315252,-0.181575 -0.2366883,-0.176412 -0.055114,0.05512 0.1906987,0.243159 0.3105712,0.320487 0.3105712,0.200343 z m 1.7517116,-0.423875 c 0,-0.02258 -0.4105568,-0.433143 -0.9123497,-0.91235 l -0.9123498,-0.871288 0.8712867,0.912351 c 0.8093503,0.847495 0.9534128,0.979149 0.9534128,0.871287 z M 41.746812,58.43862 c 0.436092,-0.441578 0.76005,-0.802868 0.719907,-0.802868 -0.04015,0 -0.429791,0.36129 -0.865883,0.802868 -0.436092,0.441577 -0.76005,0.802868 -0.719907,0.802868 0.04015,0 0.429791,-0.361291 0.865883,-0.802868 z M 7.1474685,57.745233 C 6.9217648,57.002581 6.5684436,55.830657 6.3623094,55.140958 5.7868472,53.215529 4.9217673,52.36552 2.7918888,51.632735 2.3539521,51.482062 1.967142,51.358785 1.9323106,51.358785 c -0.1143356,0 1.1596566,2.239755 1.8981009,3.33698 0.7917212,1.176387 1.9687752,2.627206 3.0069825,3.706361 0.3668912,0.381362 0.6790837,0.693385 0.6937615,0.693385 0.01468,0 -0.1579812,-0.607624 -0.383687,-1.350278 z M 42.940877,56.56562 c 0.912154,-1.092502 1.955224,-2.644607 2.736141,-4.071425 l 0.616941,-1.127217 -0.790044,0.271815 c -1.06703,0.367113 -1.61147,0.661212 -2.230986,1.205155 -0.810553,0.711674 -1.045107,1.278058 -2.16577,5.229732 l -0.227688,0.802868 0.675372,-0.72988 c 0.371456,-0.401435 0.995169,-1.112905 1.386034,-1.581048 z m -17.58291,1.419865 c -0.04851,-0.04851 -0.174411,-0.05369 -0.279787,-0.01151 -0.11645,0.0466 -0.08186,0.0812 0.0882,0.0882 0.153882,0.0063 0.2401,-0.02816 0.191594,-0.07667 z m 1.134355,-0.353795 c 4.859712,-0.353957 9.119758,-1.559312 12.131271,-3.432469 1.247273,-0.775803 2.003592,-1.567648 2.790861,-2.921952 0.570025,-0.980588 1.646142,-3.060907 1.646142,-3.182273 0,-0.03278 -0.1383,-0.09578 -0.307332,-0.139977 -0.393433,-0.102888 -0.288272,-0.431884 0.172179,-0.538667 0.238739,-0.05536 0.491239,-0.336344 0.774974,-0.862372 0.377511,-0.699891 0.422615,-0.928644 0.437928,-2.221062 l 0.01707,-1.440811 -3.732729,3.6e-5 -3.732731,3.4e-5 -1.565957,0.590108 c -3.540514,1.33419 -6.944203,1.934588 -10.967292,1.934588 -3.953124,0 -7.493994,-0.625727 -10.984796,-1.941183 L 11.623462,42.892177 H 9.3355842 c -2.1323072,0 -2.3206919,-0.02233 -2.7704646,-0.328445 C 6.299693,42.383086 5.9451101,42.049913 5.7771545,41.823344 5.4801094,41.422638 5.4706239,41.240477 5.4293784,35.144944 l -0.042402,-6.26646 H 4.2250766 3.0631764 l 2.919e-4,0.474422 c 4.379e-4,0.882766 0.4391425,6.442136 0.7400778,9.378956 0.1645398,1.605736 0.3270096,3.839169 0.3610439,4.963183 0.057008,1.882742 0.093967,2.106883 0.4693726,2.846532 0.3249819,0.640298 0.4880137,0.812221 0.805148,0.849058 0.4676837,0.05433 0.5420628,0.454295 0.1057022,0.568406 -0.1605736,0.04199 -0.291952,0.103166 -0.291952,0.135955 0,0.137338 1.0689179,2.166742 1.7371525,3.298089 1.0874775,1.841136 2.3511521,2.855811 4.9327537,3.960783 2.80282,1.199657 5.270535,1.821521 8.456556,2.131054 3.237861,0.314568 3.667562,0.324884 6.113042,0.146768 z M 5.690744,52.909406 c 0,-0.03031 -0.1149561,-0.145268 -0.255458,-0.255459 -0.2315252,-0.181575 -0.2366883,-0.176411 -0.055114,0.05512 0.1906987,0.243159 0.3105712,0.320487 0.3105712,0.200343 z m -7.056146,-6.258347 c -0.040496,-0.100354 -0.073628,-0.01825 -0.073628,0.18247 0,0.200717 0.033132,0.282828 0.073628,0.18247 0.040497,-0.100354 0.040497,-0.264581 0,-0.36494 z m 51.283224,-1.631277 c -0.19347,-0.193469 -0.313812,-0.0283 -0.198442,0.272346 0.07602,0.198096 0.122356,0.210649 0.216322,0.0586 0.06577,-0.106417 0.05772,-0.255348 -0.01788,-0.330954 z m -27.041446,0.119817 c -0.04851,-0.04851 -0.174412,-0.05369 -0.279788,-0.01151 -0.116449,0.04659 -0.08186,0.08119 0.0882,0.0882 0.153882,0.0063 0.240099,-0.02816 0.191593,-0.07667 z m 2.919519,0 c -0.04851,-0.04851 -0.174411,-0.05369 -0.279787,-0.01151 -0.11645,0.04659 -0.08186,0.08119 0.0882,0.0882 0.153882,0.0063 0.240101,-0.02816 0.191594,-0.07667 z m 0.915391,-0.358035 c 2.140805,-0.195472 4.778613,-0.726748 6.641907,-1.337734 l 1.45976,-0.478664 -5.375374,-0.03831 c -2.956457,-0.02106 -7.751768,-0.02106 -10.656247,0 l -5.280872,0.03831 1.468613,0.475912 c 3.791383,1.22862 7.869102,1.69413 11.742213,1.340486 z m 23.014906,-0.758072 c -0.04049,-0.100354 -0.07362,-0.01825 -0.07362,0.18247 0,0.200716 0.03313,0.282828 0.07362,0.18247 0.04049,-0.100354 0.04049,-0.264582 0,-0.36494 z M -1.6528711,43.66133 c -0.037011,-0.14203 -0.069727,-0.06117 -0.072702,0.179692 -0.00298,0.24086 0.027308,0.357066 0.067294,0.258236 0.039986,-0.09882 0.04242,-0.295898 0.0054,-0.437928 z m 0.2919519,-0.145977 c -0.037011,-0.14203 -0.069727,-0.06117 -0.072702,0.179692 -0.00298,0.240861 0.027308,0.357067 0.067294,0.258236 0.039986,-0.09882 0.04242,-0.295897 0.0054,-0.437928 z M 45.041564,42.926799 c -0.175025,-0.175024 -0.37408,0.188988 -0.364947,0.66738 l 0.01026,0.538795 0.209259,-0.571159 c 0.115092,-0.314137 0.180523,-0.599894 0.145402,-0.635016 z M 3.576787,42.63672 C 3.5237116,41.934211 3.4199519,40.833917 3.3462093,40.191622 3.2724665,39.549328 3.0470562,36.992743 2.8452999,34.51032 2.6435422,32.027899 2.4545471,29.972907 2.4253109,29.94367 c -0.079726,-0.07973 -1.0987786,2.342309 -1.5647632,3.719057 -0.47874715,1.414451 -0.9489548,3.612185 -1.09078936,5.098295 -0.11247452,1.178482 -0.21403444,1.067408 1.17676638,1.287012 0.32114708,0.05071 0.73119658,0.187054 0.91122138,0.302988 0.3905456,0.25151 0.8985464,1.226513 1.3430214,2.57765 0.1782775,0.541936 0.3575258,0.985338 0.3983305,0.985338 0.040805,0 0.030766,-0.574781 -0.022311,-1.27729 z m 40.89731,0.374064 c -0.0466,-0.11645 -0.08119,-0.08186 -0.0882,0.0882 -0.0063,0.153882 0.02816,0.240099 0.07667,0.191593 0.04851,-0.04851 0.0537,-0.174412 0.01152,-0.279787 z M 3.8927754,42.718831 c -0.0466,-0.116449 -0.08119,-0.08186 -0.088194,0.0882 -0.00634,0.153882 0.028164,0.2401 0.076669,0.191594 0.048506,-0.04851 0.053692,-0.174413 0.011532,-0.279789 z m -5.3076209,-2.563703 c 0.063786,-0.100354 0.2015694,-0.18247 0.3061875,-0.18247 0.13115946,0 0.221901,-0.351233 0.29227599,-1.131314 0.25583021,-2.835737 1.04633836,-5.717447 2.28869171,-8.34316 0.3952358,-0.83533 0.7012438,-1.536151 0.6800175,-1.557376 -0.021227,-0.02122 -0.2201377,-0.08416 -0.442027,-0.139849 -0.3908711,-0.0981 -0.4233041,-0.0587 -1.04153283,1.265425 -1.66267946,3.561124 -2.60764907,7.794695 -2.55328767,11.439022 l 0.015242,1.021832 0.1692284,-1.09482 c 0.093077,-0.60215 0.2214179,-1.176931 0.2852044,-1.27729 z m 55.1258735,1.914396 c 0.929174,-0.548877 0.88167,0.153617 0.88167,-13.038341 0,-13.076393 0.03658,-12.501222 -0.831901,-13.083317 -0.327112,-0.219247 -0.751956,-0.285052 -2.124113,-0.329005 l -1.715217,-0.05495 v 0.434107 0.434106 l 1.058326,0.06864 c 0.582079,0.03775 1.265474,0.17618 1.518655,0.307611 0.546018,0.283446 1.072419,1.075461 1.072419,1.613549 0,0.574942 -0.323141,0.46394 -0.696115,-0.239121 -0.435024,-0.820028 -0.777983,-1.011974 -1.959145,-1.096486 l -0.983502,-0.07037 -0.04182,5.237875 c -0.04112,5.151412 -0.04719,5.24541 -0.367385,5.6943 -0.712336,0.998641 0.93434,0.930347 -22.432248,0.930347 H 5.982696 v 5.92646 c 0,6.560226 0.013562,6.66486 0.9371614,7.228066 0.434852,0.265173 1.2035327,0.274191 23.4183056,0.274718 21.001151,4.38e-4 23.003316,-0.01991 23.372865,-0.238204 z M 8.6553619,41.479351 C 8.0664707,41.359705 7.1452692,40.389352 7.0517611,39.790188 c -0.1156702,-0.741157 0.2674919,-0.74685 0.6341318,-0.0094 0.4290388,0.862938 0.8877466,1.105456 2.2388359,1.183669 0.9879752,0.05719 1.1737842,0.107022 1.1360982,0.304673 -0.03596,0.18859 -0.251034,0.240224 -1.0653393,0.255758 -0.5611564,0.0107 -1.1642121,-0.0097 -1.3401258,-0.04552 z m 19.3223981,0.0031 c -0.05426,-0.05427 -0.09867,-0.186257 -0.09867,-0.293308 0,-0.159629 1.327732,-0.194634 7.382489,-0.194634 6.952361,0 7.379627,0.01488 7.333316,0.255458 -0.04593,0.238583 -0.527061,0.257957 -7.283826,0.2933 -3.979056,0.02082 -7.279048,-0.0065 -7.333313,-0.06083 z m 23.549443,-0.226274 c 0,-0.117014 0.246334,-0.37156 0.54741,-0.565656 0.760863,-0.490512 1.057822,-1.155879 1.058099,-2.370776 1.46e-4,-0.870711 0.03238,-0.989608 0.255685,-0.944904 0.220529,0.04415 0.2538,0.221514 0.243334,1.297203 -0.01302,1.337764 -0.209084,1.869747 -0.870342,2.361467 -0.490324,0.364608 -1.234186,0.498815 -1.234186,0.222666 z M -1.3623599,41.113096 c -0.0466,-0.11645 -0.08119,-0.08186 -0.088194,0.0882 -0.00634,0.153882 0.028164,0.2401 0.076669,0.191594 0.048506,-0.04851 0.053693,-0.174413 0.011517,-0.279788 z M 2.8709435,30.602825 c -0.0466,-0.116449 -0.08119,-0.08186 -0.088194,0.0882 -0.00634,0.153882 0.028164,0.2401 0.076669,0.191593 0.048507,-0.04851 0.053692,-0.174412 0.011532,-0.279787 z M 2.6471448,27.856652 c 0.012043,-0.240861 0.028465,-0.514566 0.036495,-0.608234 0.033392,-0.389568 -0.3410204,-0.244176 -0.6472707,0.251348 -0.2717124,0.439639 -0.2936249,0.55505 -0.1255875,0.661452 0.4252908,0.269297 0.7136342,0.150037 0.7363632,-0.304566 z m 2.7516472,0.07299 c 0,-0.333658 -0.054741,-0.36494 -0.6386449,-0.36494 -0.3512547,0 -0.8355096,-0.03938 -1.0761218,-0.08749 -0.4017522,-0.08035 -0.4428998,-0.05055 -0.5038813,0.364939 l -0.066403,0.452435 h 1.1425263 c 1.1213757,0 1.1425247,-0.0067 1.1425247,-0.36494 z m 43.019334,0.0789 c 0.90493,-0.551768 0.919437,-0.647175 0.919437,-6.046512 v -4.887291 l -0.328446,-0.04665 c -0.180645,-0.02566 -0.328446,-0.145181 -0.328446,-0.265611 0,-0.120431 0.147801,-0.239955 0.328446,-0.265611 0.255279,-0.03626 0.328446,-0.141943 0.328446,-0.474422 V 15.59467 H 28.424226 c -19.9755694,0 -20.9356391,0.01195 -21.4106959,0.266738 C 5.9905626,16.41003 5.982696,16.462281 5.982696,22.708721 v 5.585859 l 20.984048,-5.84e-4 c 20.554765,-5.84e-4 20.993608,-0.0064 21.451382,-0.285497 z m -25.695502,-0.53981 c -0.05426,-0.05426 -0.09867,-0.186251 -0.09867,-0.2933 0,-0.15963 1.327732,-0.194634 7.38249,-0.194634 6.95236,0 7.379626,0.01488 7.333315,0.255457 -0.04593,0.238583 -0.527061,0.257958 -7.283827,0.2933 -3.979056,0.02082 -7.279047,-0.0065 -7.333313,-0.06083 z m 23.549444,-0.236304 c 0,-0.122537 0.225077,-0.355592 0.50017,-0.517901 0.777368,-0.458658 1.000606,-0.922027 1.076592,-2.234643 0.05621,-0.970972 0.106234,-1.155144 0.303593,-1.117792 0.284505,0.05384 0.377739,0.845837 0.234972,1.996004 -0.0785,0.632371 -0.201963,0.896225 -0.632018,1.350624 -0.581317,0.614223 -1.483309,0.932687 -1.483309,0.523708 z M 7.0269998,19.025105 c -0.015749,-0.64513 0.055031,-1.001183 0.2686914,-1.351612 0.477316,-0.78286 1.7525004,-1.394065 1.7525004,-0.839986 0,0.119352 -0.2164841,0.307457 -0.4810774,0.418012 -0.6375478,0.266384 -0.9637349,0.798119 -1.1125511,1.813634 L 7.3320822,19.900961 7.2923511,19.24407 7.2526307,18.587177 7.1505018,19.24407 7.0483728,19.900961 Z M 7.498154,17.995691 c 0.049856,-0.129907 0.025382,-0.188501 -0.057373,-0.13736 -0.079366,0.04905 -0.1443042,0.150997 -0.1443042,0.226546 0,0.209976 0.1046308,0.163706 0.2016737,-0.08919 z m 0.4008507,-0.612815 c 0.181575,-0.231527 0.1764119,-0.23669 -0.055117,-0.05512 -0.1405021,0.110189 -0.2554581,0.225145 -0.2554581,0.255458 0,0.120144 0.1198742,0.04281 0.3105727,-0.200344 z m 6.9882273,-0.620398 c 0,-0.292135 0.06256,-0.294542 6.678401,-0.256931 5.822165,0.0331 6.678401,0.06604 6.678401,0.256931 0,0.19089 -0.856236,0.223832 -6.678401,0.25693 -6.615845,0.03761 -6.678401,0.03521 -6.678401,-0.25693 z M 1.7092404,26.980797 c 0.2050685,-0.350971 0.2612927,-0.602315 0.1795972,-0.802868 -0.065409,-0.160574 -0.1235409,-0.439754 -0.1291844,-0.620398 -0.013152,-0.420949 0.3964357,-0.438305 0.5499558,-0.02331 0.1045068,0.282512 0.1507596,0.258153 0.6236692,-0.328445 0.2809366,-0.348474 0.6966047,-0.962035 0.9237082,-1.363468 0.2271037,-0.401435 0.6669161,-1.07193 0.9773618,-1.48999 L 5.398792,21.592211 v -2.160373 c 0,-1.188203 0.064396,-2.384906 0.1431018,-2.659336 0.162988,-0.568305 0.7781527,-1.276186 1.316658,-1.515099 0.3336323,-0.14802 12.2618722,-0.429468 17.2981552,-0.408151 0.963441,0.0041 7.023268,0.046 13.466283,0.09316 l 11.714573,0.08575 -0.001,-6.0302084 c -8.75e-4,-5.6208174 -0.01929,-6.0580009 -0.270947,-6.4396755 -0.625668,-0.9489139 -0.157539,-0.9001988 -9.08532,-0.945447 -7.144784,-0.036212 -8.138652,-0.014364 -8.302013,0.18247 -0.16166,0.1948618 -1.0441,0.223606 -6.864663,0.223606 -5.758935,0 -6.704183,-0.030167 -6.860871,-0.2189639 C 17.795403,1.6103767 16.739513,1.5810078 10.088644,1.5812034 1.5249881,1.5814954 1.7478657,1.5566093 1.0589175,2.587902 L 0.72756068,3.0839122 V 14.891065 c 0,10.244097 0.0294316,11.877593 0.22231413,12.339229 0.23773639,0.568981 0.29144979,0.551334 0.75936559,-0.249497 z M 1.6552994,5.7389292 C 1.5113875,5.3638995 1.7482043,3.9985204 2.0322692,3.565487 2.5436712,2.7858994 3.7930563,2.2607537 3.7930563,2.8253859 c 0,0.1224169 -0.1478007,0.2803322 -0.328446,0.3509218 C 2.6751576,3.4847973 2.1900634,4.3624779 2.1881351,5.4858346 2.1872592,5.989538 1.8186552,6.1646284 1.6552994,5.7389292 Z M 2.6438691,3.3691829 C 2.8254442,3.1376562 2.8202811,3.1324931 2.5887544,3.3140682 2.3455964,3.5047669 2.2682671,3.6246408 2.3884112,3.6246408 c 0.030311,0 0.1452679,-0.114956 0.2554579,-0.2554579 z M 47.571283,4.067856 C 47.103178,3.234977 46.584153,3.0407369 44.82674,3.0407369 c -1.40146,0 -1.474192,-0.015162 -1.474192,-0.3073276 0,-0.2982669 0.05056,-0.3056372 1.715217,-0.2500232 1.242922,0.041524 1.841973,0.1251743 2.175548,0.3037877 0.517788,0.2772522 1.072418,1.0778837 1.072418,1.5480825 0,0.5006261 -0.39191,0.3598542 -0.744448,-0.2674003 z m 0.160544,-0.4983298 c 0,-0.030312 -0.114956,-0.145268 -0.255458,-0.255458 -0.231526,-0.1815751 -0.236689,-0.176412 -0.05512,0.055115 0.190698,0.2431595 0.310572,0.3204874 0.310572,0.2003433 z M 9.5591078,2.8947609 c -0.049621,-0.080286 -0.049621,-0.2116651 0,-0.2919519 0.058025,-0.09389 2.4831072,-0.1459759 6.7964992,-0.1459759 6.608961,0 6.70628,0.00423 6.70628,0.2919519 0,0.2877158 -0.09732,0.2919519 -6.70628,0.2919519 -4.313392,0 -6.7384721,-0.052086 -6.7964992,-0.145976 z M 5.398792,24.791156 c 0,-1.204301 -0.025997,-2.189639 -0.05777,-2.189639 -0.2642865,0 -1.6621043,2.818454 -1.8953725,3.821688 -0.1029437,0.442738 0.037462,0.502669 1.2597566,0.537712 l 0.6933859,0.01988 z m -2.2382978,0.80929 c 0,-0.116899 -0.055813,-0.178048 -0.1240285,-0.135889 -0.068214,0.04216 -0.086233,0.137803 -0.040042,0.212542 0.1180391,0.190993 0.1640712,0.169487 0.1640712,-0.07665 z m 0.3963087,-0.451932 c 0.049851,-0.129906 0.025378,-0.188501 -0.057369,-0.13736 -0.079367,0.04905 -0.1443046,0.150998 -0.1443046,0.226546 0,0.209976 0.1046308,0.163707 0.2016746,-0.08918 z M 52.986962,17.583219 c 0,-0.03031 -0.114956,-0.145268 -0.255458,-0.255458 -0.231526,-0.181575 -0.236689,-0.176412 -0.05512,0.05512 0.190699,0.243159 0.310573,0.320487 0.310573,0.200343 z M 5.7904631,17.027059 c -0.0466,-0.11645 -0.08119,-0.08186 -0.088194,0.0882 -0.00634,0.153882 0.028163,0.240101 0.076669,0.191594 0.048506,-0.04851 0.053693,-0.174412 0.011532,-0.279788 z m 0.2479315,-0.491128 c 0.049851,-0.129906 0.025378,-0.188501 -0.057371,-0.137359 -0.079367,0.04905 -0.1443045,0.150997 -0.1443045,0.226545 0,0.209977 0.1046308,0.163706 0.2016746,-0.08918 z m 0.40085,-0.612815 c 0.1815751,-0.231525 0.1764119,-0.236689 -0.055115,-0.05512 -0.1405019,0.11019 -0.255458,0.225146 -0.255458,0.255457 0,0.120145 0.1198741,0.04282 0.3105727,-0.200342 z m 0.6421341,-0.44623 c -0.044949,-0.04495 -0.1627327,-9.2e-5 -0.2617528,0.09967 -0.1430958,0.14417 -0.126329,0.160936 0.081716,0.08172 0.1439642,-0.05482 0.2249809,-0.136442 0.1800365,-0.181387 z m 9.5940593,-0.137515 c -1.706094,-0.02335 -4.497885,-0.02335 -6.20398,0 -1.7060947,0.02335 -0.3102,0.04246 3.10199,0.04246 3.412188,0 4.808084,-0.01911 3.10199,-0.04246 z m 9.96286,-0.01751 0.729881,-0.101263 -0.933764,-0.104909 c -1.204746,-0.135358 -3.366681,-0.134216 -4.555417,0.0025 l -0.933763,0.107318 0.656891,0.08973 c 0.913219,0.124732 4.154429,0.129063 5.036172,0.0067 z m 17.553611,0.01742 c -2.870252,-0.02213 -7.567029,-0.02213 -10.437282,0 -2.870252,0.02213 -0.521864,0.04024 5.218641,0.04024 5.740506,0 8.088894,-0.01811 5.218641,-0.04024 z"
     id="path817"
     inkscape:connector-curvature="0" />
  <path
     style="opacity:1;vector-effect:none;fill:#ff9955;fill-opacity:1;stroke:none;stroke-width:1.2649951;stroke-linecap:round;stroke-linejoin:bevel;stroke-miterlimit:4;stroke-dasharray:none;stroke-dashoffset:0;stroke-opacity:1"
     d="M 21.481469,57.531917 C 21.237548,57.498196 20.405994,57.398897 19.633574,57.311256 16.654863,56.973277 13.723755,56.136989 11.119975,54.882198 8.680799,53.706735 7.6747626,52.658505 6.1808979,49.735984 5.4417947,48.290039 5.3913601,48.131745 5.6265293,47.99603 6.0154668,47.771573 5.9384178,47.465389 5.4501661,47.295185 4.6647906,47.021401 4.3939894,46.207758 4.2401128,43.659486 4.1660929,42.433679 3.943995,39.60133 3.7465619,37.365377 3.5491288,35.129425 3.3486606,32.668028 3.301077,31.895607 3.2534932,31.123187 3.1786958,30.141956 3.1348602,29.715092 l -0.079701,-0.776115 h 1.1193745 1.1193745 l 0.016038,3.141419 c 0.00882,1.727783 0.058715,4.584756 0.1108737,6.34883 l 0.094835,3.207408 0.5108533,0.526786 c 0.679426,0.700616 1.1897314,0.817758 3.5666414,0.818735 1.9649714,8.76e-4 2.0430694,0.01339 3.6570044,0.589109 6.995799,2.495541 14.482805,2.549104 21.338478,0.152659 l 2.119493,-0.740884 3.658832,-3.1e-5 3.658832,-3e-5 v 1.357727 c 0,1.616214 -0.33432,2.492061 -1.130576,2.961862 -0.574303,0.338849 -0.604501,0.447731 -0.201236,0.725614 0.28543,0.196684 0.264272,0.258724 -0.699383,2.050714 -1.544282,2.871711 -2.869192,4.041372 -6.143563,5.423678 -3.070167,1.296099 -6.697327,1.971248 -10.969436,2.041819 -1.626147,0.02686 -3.156203,0.02124 -3.400126,-0.01248 z"
     id="path825"
     inkscape:connector-curvature="0" />
  <path
     style="opacity:1;vector-effect:none;fill:#ff9955;fill-opacity:1;stroke:none;stroke-width:1.2649951;stroke-linecap:round;stroke-linejoin:bevel;stroke-miterlimit:4;stroke-dasharray:none;stroke-dashoffset:0;stroke-opacity:1"
     d="M 3.3168689,43.059296 C 3.1341439,42.361969 2.2636934,40.56303 2.0071615,40.352556 1.8789887,40.247395 1.3520055,40.075642 0.83608744,39.970881 -0.03763527,39.793465 -0.1054287,39.750832 -0.15275239,39.349008 -0.27385067,38.320772 0.52915394,34.70266 1.3580974,32.541545 c 0.6264388,-1.63317 0.8520084,-2.124253 0.9757347,-2.124253 0.053311,0 0.1779765,0.981232 0.2770345,2.180517 0.099058,1.199283 0.3483434,4.029963 0.5539679,6.290401 0.3608134,3.966435 0.403212,5.129646 0.1520344,4.171086 z"
     id="path827"
     inkscape:connector-curvature="0" />
  <path
     style="opacity:1;vector-effect:none;fill:#bd5c1c;fill-opacity:1;stroke:none;stroke-width:1.2649951;stroke-linecap:round;stroke-linejoin:bevel;stroke-miterlimit:4;stroke-dasharray:none;stroke-dashoffset:0;stroke-opacity:1"
     d="M 22.072796,69.721989 C 17.207543,69.475021 14.339286,68.316659 11.635514,65.506823 9.7723298,63.570554 9.2699136,62.544766 7.8228902,57.722575 6.6260064,53.733971 6.4863142,53.373127 5.8652746,52.665802 5.2091688,51.918539 4.4757191,51.530635 2.1308048,50.690731 c -1.19531026,-0.428137 -2.19923186,-0.8807 -2.40080137,-1.08227 -0.51813244,-0.518131 -0.66253787,-1.657467 -0.69237134,-5.462691 -0.0296743,-3.785018 -0.038416,-3.75265 0.97358592,-3.605057 0.72058436,0.105091 1.69182789,0.495256 1.78417869,0.716731 0.039745,0.09532 0.6784571,1.732281 1.4193599,3.637701 1.9700199,5.066405 3.2607296,7.423212 4.8928864,8.934301 1.646795,1.52464 6.028446,3.340587 9.466535,3.923343 3.969972,0.672912 8.066189,0.751667 11.82532,0.227358 5.135872,-0.71633 10.046296,-2.85102 11.771739,-5.117485 1.210337,-1.589843 2.656666,-4.541639 4.116528,-8.401368 0.230644,-0.609804 0.48161,-1.191893 0.557696,-1.293527 0.09649,-0.128897 0.647069,-0.184789 1.820303,-0.184789 h 1.681963 l -0.004,1.663106 c -0.0022,0.914708 -0.06426,2.28604 -0.137898,3.047406 -0.189139,1.955455 -0.321601,2.080273 -3.296082,3.105918 -0.942928,0.325136 -1.90224,0.689956 -2.131803,0.810714 -0.475509,0.25013 -1.707885,1.490823 -1.947494,1.960641 -0.08794,0.172419 -0.599526,1.7674 -1.136868,3.544404 -1.251378,4.138329 -1.693966,5.270463 -2.578239,6.595069 -3.143671,4.709091 -7.743975,6.433001 -16.042541,6.011753 z m -6.0133,-5.546288 C 16.004069,63.894088 15.952855,63.862972 14.394719,63.164319 12.085999,62.129113 10.9263,60.873554 10.169115,58.58944 9.852921,57.635608 9.7099362,57.387094 9.4556029,57.349321 c -0.3820716,-0.05674 -0.3917605,0.0718 -0.092132,1.22216 0.6755561,2.593636 2.4570111,4.493477 5.1533281,5.495788 1.108921,0.412222 1.609407,0.447401 1.542693,0.108432 z m 17.524763,-0.04613 c 2.026092,-0.697079 3.844065,-2.065659 4.530007,-3.410217 0.438048,-0.858646 1.03308,-2.617121 1.03308,-3.053026 0,-0.242654 -0.08508,-0.343686 -0.289403,-0.343686 -0.229429,0 -0.351089,0.207126 -0.58706,0.999475 -0.389382,1.307474 -1.172965,2.614463 -2.044495,3.410148 -0.408257,0.372729 -1.395325,0.976079 -2.364021,1.445017 -1.585004,0.767287 -1.790151,0.917124 -1.564551,1.142721 0.154132,0.154134 0.38373,0.120146 1.286443,-0.190432 z"
     id="path831"
     inkscape:connector-curvature="0" />
  <path
     style="opacity:1;vector-effect:none;fill:none;fill-opacity:1;stroke:#000000;stroke-width:0.55172026;stroke-linecap:butt;stroke-linejoin:miter;stroke-miterlimit:4;stroke-dasharray:none;stroke-dashoffset:0;stroke-opacity:1"
     d="m 45.983711,42.376507 c 0.522662,-1.254394 1.254392,-3.658647 1.254392,-3.658647 l 2.195187,-0.104534 0.04529,4.27885 z"
     id="path833"
     inkscape:connector-curvature="0" />
  <path
     style="opacity:1;vector-effect:none;fill:none;fill-opacity:1;stroke:#000000;stroke-width:0.55172026;stroke-linecap:butt;stroke-linejoin:miter;stroke-miterlimit:4;stroke-dasharray:none;stroke-dashoffset:0;stroke-opacity:1"
     d="m 50.543149,42.91637 c 0,0 0.121,-6.515278 -0.273597,-9.738745 -0.198221,-1.619281 -1.046675,-4.780875 -1.046675,-4.780875"
     id="path835"
     inkscape:connector-curvature="0"
     sodipodi:nodetypes="cac" />
  <path
     style="opacity:1;vector-effect:none;fill:none;fill-opacity:1;stroke:#000000;stroke-width:0.55172026;stroke-linecap:butt;stroke-linejoin:miter;stroke-miterlimit:4;stroke-dasharray:none;stroke-dashoffset:0;stroke-opacity:1"
     d="m 49.347727,42.982978 c 0,0 0.121,-6.515279 -0.273597,-9.738746 -0.198222,-1.619281 -1.046675,-4.780874 -1.046675,-4.780874"
     id="path835-3"
     inkscape:connector-curvature="0"
     sodipodi:nodetypes="cac" />
  <path
     style="opacity:1;vector-effect:none;fill:none;fill-opacity:1;stroke:#000000;stroke-width:0.55172026;stroke-linecap:butt;stroke-linejoin:miter;stroke-miterlimit:4;stroke-dasharray:none;stroke-dashoffset:0;stroke-opacity:1"
     d="m 43.474925,47.707675 2.404252,-19.12949"
     id="path852"
     inkscape:connector-curvature="0" />
  <path
     style="opacity:1;vector-effect:none;fill:#ff9955;fill-opacity:1;stroke:none;stroke-width:1.2649951;stroke-linecap:round;stroke-linejoin:bevel;stroke-miterlimit:4;stroke-dasharray:none;stroke-dashoffset:0;stroke-opacity:1"
     d="m 20.251108,44.568839 c -0.803251,-0.114329 -2.27822,-0.41256 -3.277711,-0.662736 -3.655157,-0.914898 -4.025193,-0.870043 7.177387,-0.870043 9.078361,0 10.065262,0.02249 9.535138,0.217277 -0.830886,0.305301 -3.156429,0.881282 -4.730611,1.171658 -1.839901,0.33939 -6.759171,0.420685 -8.704203,0.143844 z"
     id="path854"
     inkscape:connector-curvature="0" />
  <path
     style="opacity:1;vector-effect:none;fill:#ff9955;fill-opacity:1;stroke:none;stroke-width:1.2649951;stroke-linecap:round;stroke-linejoin:bevel;stroke-miterlimit:4;stroke-dasharray:none;stroke-dashoffset:0;stroke-opacity:1"
     d="M 8.9638347,42.136682 C 7.0732625,42.057081 6.9941201,42.040615 6.5985294,41.644575 L 6.1892435,41.234828 6.1461216,35.104635 6.1029996,28.974441 25.733809,28.935876 c 10.796947,-0.02121 19.65611,-0.02436 19.687033,-0.0069 0.05205,0.02924 -1.372394,11.790224 -1.558361,12.866723 l -0.083,0.480453 -16.429813,-0.02851 C 18.313272,42.23187 10.039646,42.181981 8.9638347,42.136682 Z M 39.747019,41.535101 c 2.472244,-0.0027 3.217732,-0.122451 2.734885,-0.43942 -0.240943,-0.158168 -13.724668,-0.211829 -14.302708,-0.05692 -0.182944,0.04902 -0.332623,0.179389 -0.332623,0.289693 0,0.237516 2.81673,0.34448 6.874172,0.261041 1.382224,-0.02842 3.644047,-0.0529 5.026274,-0.05439 z M 11.067687,41.241248 c 0,-0.165374 -0.263079,-0.250087 -1.034821,-0.333221 C 8.6193024,40.755753 8.2366984,40.569089 7.7956932,39.816572 7.3716026,39.092917 7.0023175,38.968152 7.0023175,39.548527 c 0,0.534684 0.3585291,1.160358 0.9210177,1.60728 0.4502472,0.357743 0.5745843,0.381435 1.8138664,0.34563 1.0670144,-0.03082 1.3304854,-0.08235 1.3304854,-0.260189 z"
     id="path856"
     inkscape:connector-curvature="0" />
  <path
     style="opacity:1;vector-effect:none;fill:#bd5c1c;fill-opacity:1;stroke:none;stroke-width:1.2649951;stroke-linecap:round;stroke-linejoin:bevel;stroke-miterlimit:4;stroke-dasharray:none;stroke-dashoffset:0;stroke-opacity:1"
     d="m 46.871129,42.169338 c -0.243504,-0.03661 -0.386171,-0.13446 -0.34488,-0.236553 0.03874,-0.09577 0.280998,-0.789475 0.538367,-1.541568 l 0.467943,-1.367441 h 0.726967 0.726968 v 1.626146 1.626148 l -0.850032,-0.02215 c -0.467517,-0.01219 -1.036917,-0.05024 -1.265333,-0.08458 z"
     id="path858"
     inkscape:connector-curvature="0" />
  <path
     style="opacity:1;vector-effect:none;fill:#ff9955;fill-opacity:1;stroke:none;stroke-width:1.2649951;stroke-linecap:round;stroke-linejoin:bevel;stroke-miterlimit:4;stroke-dasharray:none;stroke-dashoffset:0;stroke-opacity:1"
     d="m 44.551545,42.116898 c 0,-0.08754 0.365884,-3.076033 0.813074,-6.641082 0.447191,-3.565051 0.813074,-6.520274 0.813074,-6.567166 0,-0.04689 0.360311,-0.08526 0.800688,-0.08526 h 0.800689 l 0.374453,1.596882 c 0.533232,2.274017 0.662034,3.216719 0.776579,5.683824 l 0.101241,2.180517 h -0.595271 c -1.411444,0 -1.381273,-0.02985 -2.103158,2.081193 l -0.653223,1.91026 H 45.11562 c -0.310239,0 -0.564072,-0.07162 -0.564072,-0.159172 z"
     id="path860"
     inkscape:connector-curvature="0" />
  <path
     style="opacity:1;vector-effect:none;fill:#686868;fill-opacity:1;stroke:none;stroke-width:1.2649951;stroke-linecap:round;stroke-linejoin:bevel;stroke-miterlimit:4;stroke-dasharray:none;stroke-dashoffset:0;stroke-opacity:1"
     d="M 6.6822825,58.128297 C 5.2547314,56.621294 3.2941354,53.900812 2.4759379,52.291661 2.0406512,51.435581 2.1619941,51.401883 3.4945627,52.00878 c 1.1304938,0.514862 1.7777251,1.048927 2.2428513,1.850694 0.3459701,0.596369 1.6433954,4.644521 1.5261406,4.761776 -0.03229,0.03229 -0.293858,-0.189544 -0.5812721,-0.492953 z"
     id="path862"
     inkscape:connector-curvature="0" />
  <path
     style="opacity:1;vector-effect:none;fill:#686868;fill-opacity:1;stroke:none;stroke-width:1.2649951;stroke-linecap:round;stroke-linejoin:bevel;stroke-miterlimit:4;stroke-dasharray:none;stroke-dashoffset:0;stroke-opacity:1"
     d="m 41.220738,58.020136 c 0.04896,-0.243922 0.363381,-1.305479 0.698719,-2.359016 0.550038,-1.728074 0.676106,-1.981775 1.288274,-2.59257 0.638719,-0.637284 2.559674,-1.642992 2.758477,-1.444188 0.12718,0.12718 -1.590887,2.932038 -2.576413,4.206164 -0.49127,0.635134 -1.200311,1.48741 -1.575646,1.893947 -0.657445,0.712101 -0.679166,0.722925 -0.593411,0.295663 z"
     id="path864"
     inkscape:connector-curvature="0" />
  <path
     style="opacity:1;vector-effect:none;fill:#686868;fill-opacity:1;stroke:none;stroke-width:1.2649951;stroke-linecap:round;stroke-linejoin:bevel;stroke-miterlimit:4;stroke-dasharray:none;stroke-dashoffset:0;stroke-opacity:1"
     d="m 40.264429,61.132477 c 0,-0.364123 0.801627,-1.49355 1.872561,-2.638288 1.971135,-2.106977 3.308967,-3.985283 4.453663,-6.252912 0.496497,-0.983556 0.784786,-1.292506 1.13691,-1.218391 0.455249,0.09582 -1.477853,3.581551 -3.30662,5.962429 -1.16747,1.519932 -4.156514,4.502251 -4.156514,4.147162 z"
     id="path866"
     inkscape:connector-curvature="0" />
  <path
     style="opacity:1;vector-effect:none;fill:#686868;fill-opacity:1;stroke:none;stroke-width:1.2649951;stroke-linecap:round;stroke-linejoin:bevel;stroke-miterlimit:4;stroke-dasharray:none;stroke-dashoffset:0;stroke-opacity:1"
     d="M 6.1636757,59.615979 C 4.2733742,57.744916 2.7230121,55.779048 1.6407216,53.880852 0.6826881,52.200585 0.1285273,51.022394 0.24259598,50.908325 c 0.24289324,-0.242894 0.88185322,0.495223 1.70250362,1.966706 1.2667932,2.27145 2.5307896,3.989828 4.3343151,5.892419 1.356623,1.43114 1.9414533,2.296614 1.7089881,2.529079 -0.034717,0.03472 -0.8558452,-0.721529 -1.8247271,-1.68055 z"
     id="path868"
     inkscape:connector-curvature="0" />
  <path
     style="opacity:1;vector-effect:none;fill:#686868;fill-opacity:1;stroke:none;stroke-width:8.6657753;stroke-linecap:round;stroke-linejoin:bevel;stroke-miterlimit:4;stroke-dasharray:none;stroke-dashoffset:0;stroke-opacity:1"
     d=""
     id="path870"
     inkscape:connector-curvature="0" />
  <path
     style="opacity:1;vector-effect:none;fill:#686868;fill-opacity:1;stroke:none;stroke-width:1.2649951;stroke-linecap:round;stroke-linejoin:bevel;stroke-miterlimit:4;stroke-dasharray:none;stroke-dashoffset:0;stroke-opacity:1"
     d="m 49.818745,40.68688 c -0.04764,-0.792746 -0.12401,-2.439221 -0.169696,-3.658831 -0.111631,-2.980062 -0.299733,-4.54583 -0.794745,-6.615466 -0.383493,-1.603375 -0.395337,-1.73702 -0.153951,-1.73702 0.270577,0 0.606405,1.151065 1.121395,3.84362 0.266083,1.391185 0.468136,9.609056 0.236257,9.609056 -0.08859,0 -0.188976,-0.604741 -0.23926,-1.441359 z"
     id="path872"
     inkscape:connector-curvature="0" />
  <path
     style="opacity:1;vector-effect:none;fill:#686868;fill-opacity:1;stroke:none;stroke-width:0.63249755;stroke-linecap:round;stroke-linejoin:bevel;stroke-miterlimit:4;stroke-dasharray:none;stroke-dashoffset:0;stroke-opacity:1"
     d="m -1.8275973,40.709996 c 0.079332,-2.980471 0.6621163,-5.866415 1.79117535,-8.869898 0.42613215,-1.133581 1.30632185,-2.960179 1.45368045,-3.016726 0.062254,-0.02389 0.2478547,-0.0035 0.4124477,0.04529 l 0.2992601,0.08872 -0.4867518,1.071779 c -1.47852948,3.255574 -2.14930941,5.585098 -2.46892841,8.574233 -0.10026427,0.937687 -0.19624619,1.330485 -0.32511119,1.330485 -0.2198085,0 -0.3582279,0.310898 -0.5319741,1.194846 l -0.179212,0.911753 z"
     id="path874"
     inkscape:connector-curvature="0" />
</svg>
